<svg width="20" height="21" viewBox="0 0 20 21" xmlns="http://www.w3.org/2000/svg">
<path d="M3.33301 17.6453V15.9787H5.62467L5.29134 15.687C4.56912 15.0481 4.06217 14.319 3.77051 13.4995C3.47884 12.6801 3.33301 11.8537 3.33301 11.0203C3.33301 9.47868 3.79481 8.10715 4.71842 6.90576C5.64204 5.70437 6.8469 4.90923 8.33301 4.52035V6.27034C7.33301 6.63146 6.52745 7.24604 5.91634 8.11409C5.30523 8.98215 4.99967 9.9509 4.99967 11.0203C4.99967 11.6453 5.11773 12.253 5.35384 12.8433C5.58995 13.4335 5.95801 13.9787 6.45801 14.4787L6.66634 14.687V12.6453H8.33301V17.6453H3.33301ZM11.6663 17.437V15.687C12.6663 15.3259 13.4719 14.7113 14.083 13.8433C14.6941 12.9752 14.9997 12.0065 14.9997 10.937C14.9997 10.312 14.8816 9.70437 14.6455 9.11409C14.4094 8.52382 14.0413 7.97868 13.5413 7.47868L13.333 7.27034V9.31201H11.6663V4.31201H16.6663V5.97868H14.3747L14.708 6.27034C15.3886 6.9509 15.8851 7.69048 16.1976 8.48909C16.5101 9.28771 16.6663 10.1037 16.6663 10.937C16.6663 12.4787 16.2045 13.8502 15.2809 15.0516C14.3573 16.253 13.1525 17.0481 11.6663 17.437Z"/>
</svg>
